<?xml version="1.0" encoding="utf-8"?>
<!-- Generator: Adobe Illustrator 24.0.2, SVG Export Plug-In . SVG Version: 6.00 Build 0)  -->
<svg version="1.0" id="Layer_1" xmlns="http://www.w3.org/2000/svg" xmlns:xlink="http://www.w3.org/1999/xlink" x="0px" y="0px"
	 viewBox="0 0 181.4 124.05" enable-background="new 0 0 181.4 124.05" xml:space="preserve">
<g>
	<linearGradient id="SVGID_1_" gradientUnits="userSpaceOnUse" x1="38.0613" y1="121.1356" x2="38.0613" y2="93.7825">
		<stop  offset="0" style="stop-color:#A44D9D"/>
		<stop  offset="1" style="stop-color:#F26522"/>
	</linearGradient>
	<path fill="url(#SVGID_1_)" d="M60.12,93.78H16.01c-2.8,0-5.08,2.28-5.08,5.08v1.12c0,1.34,0.53,2.55,1.38,3.46
		c-0.85,0.91-1.38,2.12-1.38,3.46v1.12c0,1.34,0.53,2.55,1.38,3.46c-0.85,0.91-1.38,2.12-1.38,3.46v1.12c0,2.8,2.28,5.08,5.08,5.08
		h44.11c2.8,0,5.08-2.28,5.08-5.08v-1.12c0-1.34-0.53-2.55-1.38-3.46c0.85-0.91,1.38-2.12,1.38-3.46v-1.12
		c0-1.34-0.53-2.55-1.38-3.46c0.85-0.91,1.38-2.12,1.38-3.46v-1.12C65.19,96.06,62.92,93.78,60.12,93.78z M14.16,98.86
		c0-1.02,0.83-1.84,1.84-1.84h44.11c1.02,0,1.84,0.83,1.84,1.84v1.12c0,1.02-0.83,1.84-1.84,1.84H16.01c-1.02,0-1.84-0.83-1.84-1.84
		V98.86z M61.96,114.94v1.12c0,1.02-0.83,1.84-1.84,1.84H16.01c-1.02,0-1.84-0.83-1.84-1.84v-1.12c0-1.02,0.83-1.84,1.84-1.84h44.11
		C61.13,113.1,61.96,113.92,61.96,114.94z M61.96,106.9v1.12c0,1.02-0.83,1.84-1.84,1.84H16.01c-1.02,0-1.84-0.83-1.84-1.84v-1.12
		c0-1.02,0.83-1.84,1.84-1.84h44.11C61.13,105.06,61.96,105.88,61.96,106.9z"/>
	<linearGradient id="SVGID_2_" gradientUnits="userSpaceOnUse" x1="89.6214" y1="121.1356" x2="89.6214" y2="43.5858">
		<stop  offset="0" style="stop-color:#A44D9D"/>
		<stop  offset="1" style="stop-color:#F26522"/>
	</linearGradient>
	<path fill="url(#SVGID_2_)" d="M116.58,69.66h-13.3c0.14-1.02,0.22-2.06,0.22-3.12c0-12.66-10.3-22.95-22.95-22.95
		s-22.95,10.3-22.95,22.95c0,7.9,4.01,14.88,10.11,19.01c0.24,0.68,0.6,1.29,1.08,1.81c-0.85,0.91-1.38,2.12-1.38,3.46v1.12
		c0,1.34,0.53,2.55,1.38,3.46c-0.85,0.91-1.38,2.12-1.38,3.46v1.12c0,1.34,0.53,2.55,1.38,3.46c-0.85,0.91-1.38,2.12-1.38,3.46v1.12
		c0,1.34,0.53,2.55,1.38,3.46c-0.85,0.91-1.38,2.12-1.38,3.46v1.12c0,2.8,2.28,5.08,5.08,5.08h44.11c2.8,0,5.08-2.28,5.08-5.08
		v-1.12c0-1.34-0.53-2.55-1.38-3.46c0.85-0.91,1.38-2.12,1.38-3.46v-1.12c0-1.34-0.53-2.55-1.38-3.46c0.85-0.91,1.38-2.12,1.38-3.46
		v-1.12c0-1.34-0.53-2.55-1.38-3.46c0.85-0.91,1.38-2.12,1.38-3.46v-1.12c0-1.34-0.53-2.55-1.38-3.46c0.85-0.91,1.38-2.12,1.38-3.46
		v-1.12c0-1.34-0.53-2.55-1.38-3.46c0.85-0.91,1.38-2.12,1.38-3.46v-1.12C121.66,71.94,119.38,69.66,116.58,69.66z M102.59,72.9
		h13.99c1.02,0,1.84,0.83,1.84,1.84v1.12c0,1.02-0.83,1.84-1.84,1.84h-15.99C101.43,76.2,102.1,74.59,102.59,72.9z M67.61,81.39
		c-4.15-3.62-6.79-8.93-6.79-14.85c0-10.87,8.85-19.72,19.72-19.72s19.72,8.85,19.72,19.72c0,1.07-0.11,2.1-0.27,3.12
		c-0.18,1.11-0.44,2.19-0.8,3.23c-0.59,1.72-1.4,3.34-2.41,4.81c-0.81,1.18-1.76,2.26-2.81,3.23c-2.49,2.33-5.58,4.02-9.01,4.81
		c-1.42,0.33-2.9,0.52-4.42,0.52s-3-0.19-4.42-0.52c-1.96-0.45-3.8-1.2-5.49-2.18C69.55,82.93,68.54,82.21,67.61,81.39z
		 M118.42,114.94v1.12c0,1.02-0.83,1.84-1.84,1.84H72.47c-1.02,0-1.84-0.83-1.84-1.84v-1.12c0-1.02,0.83-1.84,1.84-1.84h44.11
		C117.6,113.1,118.42,113.92,118.42,114.94z M118.42,106.9v1.12c0,1.02-0.83,1.84-1.84,1.84H72.47c-1.02,0-1.84-0.83-1.84-1.84
		v-1.12c0-1.02,0.83-1.84,1.84-1.84h44.11C117.6,105.06,118.42,105.88,118.42,106.9z M118.42,98.86v1.12c0,1.02-0.83,1.84-1.84,1.84
		H72.47c-1.02,0-1.84-0.83-1.84-1.84v-1.12c0-1.02,0.83-1.84,1.84-1.84h44.11C117.6,97.02,118.42,97.84,118.42,98.86z M118.42,90.82
		v1.12c0,1.02-0.83,1.84-1.84,1.84H72.47c-1.02,0-1.84-0.83-1.84-1.84v-1.12c0-1.02,0.83-1.84,1.84-1.84h3.23
		c1.56,0.34,3.18,0.52,4.84,0.52s3.28-0.18,4.84-0.52h31.2C117.6,88.98,118.42,89.8,118.42,90.82z M118.42,82.78v1.12
		c0,1.02-0.83,1.84-1.84,1.84H93.09c2.01-1.32,3.8-2.94,5.31-4.81h18.18C117.6,80.94,118.42,81.76,118.42,82.78z"/>
	<linearGradient id="SVGID_3_" gradientUnits="userSpaceOnUse" x1="150.9879" y1="121.1356" x2="150.9879" y2="45.5433">
		<stop  offset="0" style="stop-color:#A44D9D"/>
		<stop  offset="1" style="stop-color:#F26522"/>
	</linearGradient>
	<path fill="url(#SVGID_3_)" d="M173.04,45.54h-44.11c-2.8,0-5.08,2.28-5.08,5.08v1.12c0,1.34,0.53,2.55,1.38,3.46
		c-0.85,0.91-1.38,2.12-1.38,3.46v1.12c0,1.34,0.53,2.55,1.38,3.46c-0.85,0.91-1.38,2.12-1.38,3.46v1.12c0,1.34,0.53,2.55,1.38,3.46
		c-0.85,0.91-1.38,2.12-1.38,3.46v1.12c0,1.34,0.53,2.55,1.38,3.46c-0.85,0.91-1.38,2.12-1.38,3.46v1.12c0,1.34,0.53,2.55,1.38,3.46
		c-0.85,0.91-1.38,2.12-1.38,3.46v1.12c0,1.34,0.53,2.55,1.38,3.46c-0.85,0.91-1.38,2.12-1.38,3.46v1.12c0,1.34,0.53,2.55,1.38,3.46
		c-0.85,0.91-1.38,2.12-1.38,3.46v1.12c0,1.34,0.53,2.55,1.38,3.46c-0.85,0.91-1.38,2.12-1.38,3.46v1.12c0,2.8,2.28,5.08,5.08,5.08
		h44.11c2.8,0,5.08-2.28,5.08-5.08v-1.12c0-1.34-0.53-2.55-1.38-3.46c0.85-0.91,1.38-2.12,1.38-3.46v-1.12
		c0-1.34-0.53-2.55-1.38-3.46c0.85-0.91,1.38-2.12,1.38-3.46v-1.12c0-1.34-0.53-2.55-1.38-3.46c0.85-0.91,1.38-2.12,1.38-3.46v-1.12
		c0-1.34-0.53-2.55-1.38-3.46c0.85-0.91,1.38-2.12,1.38-3.46v-1.12c0-1.34-0.53-2.55-1.38-3.46c0.85-0.91,1.38-2.12,1.38-3.46v-1.12
		c0-1.34-0.53-2.55-1.38-3.46c0.85-0.91,1.38-2.12,1.38-3.46V66.7c0-1.34-0.53-2.55-1.38-3.46c0.85-0.91,1.38-2.12,1.38-3.46v-1.12
		c0-1.34-0.53-2.55-1.38-3.46c0.85-0.91,1.38-2.12,1.38-3.46v-1.12C178.12,47.82,175.84,45.54,173.04,45.54z M127.09,50.62
		c0-1.02,0.83-1.84,1.84-1.84h44.11c1.02,0,1.84,0.83,1.84,1.84v1.12c0,1.02-0.83,1.84-1.84,1.84h-44.11
		c-1.02,0-1.84-0.83-1.84-1.84V50.62z M174.89,114.94v1.12c0,1.02-0.83,1.84-1.84,1.84h-44.11c-1.02,0-1.84-0.83-1.84-1.84v-1.12
		c0-1.02,0.83-1.84,1.84-1.84h44.11C174.06,113.1,174.89,113.92,174.89,114.94z M174.89,106.9v1.12c0,1.02-0.83,1.84-1.84,1.84
		h-44.11c-1.02,0-1.84-0.83-1.84-1.84v-1.12c0-1.02,0.83-1.84,1.84-1.84h44.11C174.06,105.06,174.89,105.88,174.89,106.9z
		 M174.89,98.86v1.12c0,1.02-0.83,1.84-1.84,1.84h-44.11c-1.02,0-1.84-0.83-1.84-1.84v-1.12c0-1.02,0.83-1.84,1.84-1.84h44.11
		C174.06,97.02,174.89,97.84,174.89,98.86z M174.89,90.82v1.12c0,1.02-0.83,1.84-1.84,1.84h-44.11c-1.02,0-1.84-0.83-1.84-1.84
		v-1.12c0-1.02,0.83-1.84,1.84-1.84h44.11C174.06,88.98,174.89,89.8,174.89,90.82z M174.89,82.78v1.12c0,1.02-0.83,1.84-1.84,1.84
		h-44.11c-1.02,0-1.84-0.83-1.84-1.84v-1.12c0-1.02,0.83-1.84,1.84-1.84h44.11C174.06,80.94,174.89,81.76,174.89,82.78z
		 M174.89,74.74v1.12c0,1.02-0.83,1.84-1.84,1.84h-44.11c-1.02,0-1.84-0.83-1.84-1.84v-1.12c0-1.02,0.83-1.84,1.84-1.84h44.11
		C174.06,72.9,174.89,73.72,174.89,74.74z M174.89,66.7v1.12c0,1.02-0.83,1.84-1.84,1.84h-44.11c-1.02,0-1.84-0.83-1.84-1.84V66.7
		c0-1.02,0.83-1.84,1.84-1.84h44.11C174.06,64.86,174.89,65.68,174.89,66.7z M174.89,58.66v1.12c0,1.02-0.83,1.84-1.84,1.84h-44.11
		c-1.02,0-1.84-0.83-1.84-1.84v-1.12c0-1.02,0.83-1.84,1.84-1.84h44.11C174.06,56.82,174.89,57.64,174.89,58.66z"/>
	<linearGradient id="SVGID_4_" gradientUnits="userSpaceOnUse" x1="103.1843" y1="82.0423" x2="103.1843" y2="9.1888">
		<stop  offset="0" style="stop-color:#A44D9D"/>
		<stop  offset="1" style="stop-color:#F26522"/>
	</linearGradient>
	<path fill="url(#SVGID_4_)" d="M180.27,9.8c-0.31-0.39-0.77-0.61-1.27-0.61c0,0,0,0,0,0l-21.85,0.06c-0.65,0-1.24,0.4-1.49,1
		c-0.25,0.6-0.11,1.3,0.35,1.76l6.67,6.67l-52.93,31.83L83.51,24.28c-0.63-0.63-1.66-0.63-2.29,0L26.22,79.28
		c-0.63,0.63-0.63,1.65,0,2.29c0.32,0.32,0.73,0.47,1.14,0.47s0.83-0.16,1.14-0.47l53.86-53.86l25.98,25.98
		c0.52,0.53,1.34,0.62,1.98,0.24l54.73-32.91l8.68,8.38c0.42,0.4,1.02,0.55,1.58,0.39c0.56-0.16,0.98-0.61,1.12-1.18l4.14-17.43
		C180.69,10.7,180.58,10.19,180.27,9.8z M173.94,25.11l-7.53-7.26l-5.37-5.37l15.91-0.05L173.94,25.11z"/>
	<linearGradient id="SVGID_5_" gradientUnits="userSpaceOnUse" x1="80.5396" y1="84.867" x2="80.5396" y2="48.2122">
		<stop  offset="0" style="stop-color:#A44D9D"/>
		<stop  offset="1" style="stop-color:#F26522"/>
	</linearGradient>
	<path fill="url(#SVGID_5_)" d="M82.63,77.7c-0.64,0.3-1.34,0.48-2.09,0.48S79.09,78,78.45,77.7c-1.66-0.79-2.82-2.47-2.82-4.43
		c0-0.13-0.02-0.26-0.05-0.38c-0.17-0.64-0.75-1.12-1.45-1.12s-1.28,0.48-1.45,1.12c-0.03,0.12-0.05,0.25-0.05,0.38
		c0,1.64,0.5,3.16,1.36,4.43c1.07,1.58,2.71,2.75,4.61,3.23c0.15,0.04,0.29,0.07,0.44,0.1v2.33c0,0.83,0.67,1.5,1.5,1.5
		s1.5-0.67,1.5-1.5v-2.33c0.15-0.03,0.29-0.07,0.44-0.1c1.9-0.48,3.54-1.65,4.61-3.23c0.86-1.26,1.36-2.79,1.36-4.43
		c0-0.13-0.01-0.25-0.02-0.38c-0.06-1.18-0.37-2.27-0.9-3.23c-1.22-2.21-3.61-3.78-6.74-4.28c0,0,0,0-0.01,0
		c-2.48-0.41-5.16-2.13-5.16-4.93c0-2.71,2.2-4.91,4.91-4.91s4.91,2.2,4.91,4.91c0,0.83,0.67,1.5,1.5,1.5s1.5-0.67,1.5-1.5
		c0-3.85-2.76-7.06-6.41-7.76v-2.97c0-0.83-0.67-1.5-1.5-1.5s-1.5,0.67-1.5,1.5v2.97c-3.65,0.7-6.41,3.92-6.41,7.76
		c0,4.55,3.97,7.28,7.67,7.89c0,0,0,0,0.01,0c0,0,0,0,0,0c1.36,0.21,2.46,0.68,3.31,1.32c1.07,0.81,1.69,1.91,1.8,3.23
		c0.01,0.13,0.04,0.25,0.04,0.38C85.45,75.23,84.29,76.91,82.63,77.7z"/>
</g>
</svg>
