<?xml version="1.0" encoding="utf-8"?>
<!-- Generator: Adobe Illustrator 24.0.2, SVG Export Plug-In . SVG Version: 6.00 Build 0)  -->
<svg version="1.0" id="Layer_1" xmlns="http://www.w3.org/2000/svg" xmlns:xlink="http://www.w3.org/1999/xlink" x="0px" y="0px"
	 viewBox="0 0 181.4 124.05" enable-background="new 0 0 181.4 124.05" xml:space="preserve">
<g>
	<linearGradient id="SVGID_1_" gradientUnits="userSpaceOnUse" x1="34.7491" y1="66.1512" x2="34.7491" y2="61.8964">
		<stop  offset="0" style="stop-color:#A44D9D"/>
		<stop  offset="1" style="stop-color:#F26522"/>
	</linearGradient>
	<path fill="url(#SVGID_1_)" d="M34.12,66.15h1.25c0.83,0,1.5-0.67,1.5-1.5V63.4c0-0.83-0.67-1.5-1.5-1.5h-1.25
		c-0.83,0-1.5,0.67-1.5,1.5v1.25C32.62,65.48,33.29,66.15,34.12,66.15z"/>
	<linearGradient id="SVGID_2_" gradientUnits="userSpaceOnUse" x1="15.0816" y1="118.0741" x2="15.0816" y2="97.0106">
		<stop  offset="0" style="stop-color:#A44D9D"/>
		<stop  offset="1" style="stop-color:#F26522"/>
	</linearGradient>
	<path fill="url(#SVGID_2_)" d="M15.08,97.01c-0.83,0-1.5,0.67-1.5,1.5v18.06c0,0.83,0.67,1.5,1.5,1.5s1.5-0.67,1.5-1.5V98.51
		C16.58,97.68,15.91,97.01,15.08,97.01z"/>
	<linearGradient id="SVGID_3_" gradientUnits="userSpaceOnUse" x1="42.6695" y1="118.0741" x2="42.6695" y2="97.0106">
		<stop  offset="0" style="stop-color:#A44D9D"/>
		<stop  offset="1" style="stop-color:#F26522"/>
	</linearGradient>
	<path fill="url(#SVGID_3_)" d="M42.67,97.01c-0.83,0-1.5,0.67-1.5,1.5v18.06c0,0.83,0.67,1.5,1.5,1.5s1.5-0.67,1.5-1.5V98.51
		C44.17,97.68,43.5,97.01,42.67,97.01z"/>
	<linearGradient id="SVGID_4_" gradientUnits="userSpaceOnUse" x1="28.8756" y1="118.0741" x2="28.8756" y2="45.2841">
		<stop  offset="0" style="stop-color:#A44D9D"/>
		<stop  offset="1" style="stop-color:#F26522"/>
	</linearGradient>
	<path fill="url(#SVGID_4_)" d="M39.83,75.01c1.64-2.26,2.61-5.03,2.61-8.03V53.66c0-4.62-3.76-8.38-8.38-8.38H11.38
		c-0.83,0-1.5,0.67-1.5,1.5v3.51c0,3.57,2.27,6.63,5.43,7.8v9.13c0,2.92,0.93,5.62,2.52,7.82C9.6,78.57,3.82,86.74,3.82,96.24v20.34
		c0,0.83,0.67,1.5,1.5,1.5s1.5-0.67,1.5-1.5V96.24c0-8.64,5.5-16.02,13.18-18.82c0.8,0.69,1.68,1.28,2.63,1.77v6.91
		c0,0.02,0,0.03,0,0.05l-2.11,23.2c-0.05,0.52,0.18,1.03,0.61,1.35l6.87,5.03c0.53,0.39,1.25,0.39,1.78,0l6.95-5.15
		c0.42-0.31,0.65-0.82,0.6-1.35l-2.2-23.14v-6.99c0.9-0.48,1.75-1.05,2.52-1.71c7.74,2.77,13.29,10.18,13.29,18.86v20.34
		c0,0.83,0.67,1.5,1.5,1.5s1.5-0.67,1.5-1.5V96.24C53.93,86.7,48.11,78.5,39.83,75.01z M28.87,112.65l-5.29-3.88l1.91-21.04
		l6.76-0.07l1.99,21L28.87,112.65z M28.72,77.67c-1.76-0.01-3.42-0.45-4.88-1.23c0.98-0.15,1.98-0.22,3-0.22h4.08
		c0.97,0,1.92,0.07,2.85,0.2c-0.42,0.23-0.87,0.42-1.32,0.59C31.78,77.24,30.5,77.59,28.72,77.67z M32.12,80.25v4.35h-6.5v-4.29
		c0.94,0.22,2.07,0.4,3.16,0.36C29.94,80.67,31.05,80.52,32.12,80.25z M39.44,66.98c0,2.68-0.99,5.13-2.62,7
		c-1.89-0.5-3.86-0.77-5.9-0.77h-4.08c-2.08,0-4.1,0.28-6.01,0.8c-1.56-1.83-2.51-4.2-2.51-6.78v-8.62h21.13V66.98z M39.44,55.62
		H18.2c-2.93,0-5.32-2.39-5.32-5.32v-2.01h21.18c2.96,0,5.38,2.41,5.38,5.38V55.62z"/>
	<linearGradient id="SVGID_5_" gradientUnits="userSpaceOnUse" x1="22.6385" y1="66.1512" x2="22.6385" y2="61.8964">
		<stop  offset="0" style="stop-color:#A44D9D"/>
		<stop  offset="1" style="stop-color:#F26522"/>
	</linearGradient>
	<path fill="url(#SVGID_5_)" d="M22.01,66.15h1.26c0.83,0,1.5-0.67,1.5-1.5V63.4c0-0.83-0.67-1.5-1.5-1.5h-1.26
		c-0.83,0-1.5,0.67-1.5,1.5v1.25C20.51,65.48,21.18,66.15,22.01,66.15z"/>
	<linearGradient id="SVGID_6_" gradientUnits="userSpaceOnUse" x1="150.6612" y1="118.0741" x2="150.6612" y2="45.2841">
		<stop  offset="0" style="stop-color:#A44D9D"/>
		<stop  offset="1" style="stop-color:#F26522"/>
	</linearGradient>
	<path fill="url(#SVGID_6_)" d="M161.71,75.05c1.58-2.21,2.52-4.91,2.52-7.82V58.1c3.17-1.18,5.43-4.23,5.43-7.8v-3.51
		c0-0.83-0.67-1.5-1.5-1.5h-22.68c-4.62,0-8.38,3.76-8.38,8.38v13.32c0,3,0.97,5.77,2.61,8.03c-8.28,3.49-14.1,11.69-14.1,21.22
		v20.34c0,0.83,0.67,1.5,1.5,1.5s1.5-0.67,1.5-1.5V96.24c0-8.68,5.55-16.09,13.29-18.86c0.77,0.66,1.62,1.24,2.52,1.71v6.99
		l-2.2,23.14c-0.05,0.52,0.18,1.03,0.6,1.35l6.95,5.15c0.53,0.39,1.25,0.39,1.78,0l6.87-5.03c0.42-0.31,0.65-0.82,0.61-1.35
		l-2.11-23.2c0-0.02,0-0.03,0-0.05v-6.91c0.95-0.49,1.83-1.08,2.63-1.77c7.68,2.8,13.18,10.18,13.18,18.82v20.34
		c0,0.83,0.67,1.5,1.5,1.5s1.5-0.67,1.5-1.5V96.24C175.72,86.74,169.94,78.57,161.71,75.05z M150.67,112.65l-5.38-3.99l1.99-21
		l6.76,0.07l1.91,21.04L150.67,112.65z M150.82,77.67c-1.79-0.08-3.06-0.43-3.72-0.66c-0.46-0.17-0.9-0.37-1.32-0.59
		c0.93-0.13,1.88-0.2,2.85-0.2h4.08c1.02,0,2.02,0.08,3,0.22C154.24,77.22,152.58,77.66,150.82,77.67z M153.91,80.31v4.29h-6.5
		v-4.35c1.07,0.27,2.19,0.42,3.34,0.42C151.84,80.71,152.97,80.53,153.91,80.31z M161.22,67.23c0,2.59-0.95,4.96-2.51,6.78
		c-1.92-0.52-3.93-0.8-6.01-0.8h-4.08c-2.04,0-4.02,0.27-5.9,0.77c-1.63-1.88-2.62-4.33-2.62-7v-8.37h21.13V67.23z M140.1,55.62
		v-1.96c0-2.96,2.41-5.38,5.38-5.38h21.18v2.01c0,2.93-2.39,5.32-5.32,5.32H140.1z"/>
	<linearGradient id="SVGID_7_" gradientUnits="userSpaceOnUse" x1="136.8672" y1="118.0741" x2="136.8672" y2="97.0106">
		<stop  offset="0" style="stop-color:#A44D9D"/>
		<stop  offset="1" style="stop-color:#F26522"/>
	</linearGradient>
	<path fill="url(#SVGID_7_)" d="M136.87,97.01c-0.83,0-1.5,0.67-1.5,1.5v18.06c0,0.83,0.67,1.5,1.5,1.5s1.5-0.67,1.5-1.5V98.51
		C138.37,97.68,137.7,97.01,136.87,97.01z"/>
	<linearGradient id="SVGID_8_" gradientUnits="userSpaceOnUse" x1="144.7877" y1="66.1512" x2="144.7877" y2="61.8964">
		<stop  offset="0" style="stop-color:#A44D9D"/>
		<stop  offset="1" style="stop-color:#F26522"/>
	</linearGradient>
	<path fill="url(#SVGID_8_)" d="M144.16,66.15h1.25c0.83,0,1.5-0.67,1.5-1.5V63.4c0-0.83-0.67-1.5-1.5-1.5h-1.25
		c-0.83,0-1.5,0.67-1.5,1.5v1.25C142.66,65.48,143.33,66.15,144.16,66.15z"/>
	<linearGradient id="SVGID_9_" gradientUnits="userSpaceOnUse" x1="156.8983" y1="66.1512" x2="156.8983" y2="61.8964">
		<stop  offset="0" style="stop-color:#A44D9D"/>
		<stop  offset="1" style="stop-color:#F26522"/>
	</linearGradient>
	<path fill="url(#SVGID_9_)" d="M156.27,66.15h1.26c0.83,0,1.5-0.67,1.5-1.5V63.4c0-0.83-0.67-1.5-1.5-1.5h-1.26
		c-0.83,0-1.5,0.67-1.5,1.5v1.25C154.77,65.48,155.44,66.15,156.27,66.15z"/>
	<linearGradient id="SVGID_10_" gradientUnits="userSpaceOnUse" x1="164.4551" y1="118.0741" x2="164.4551" y2="97.0106">
		<stop  offset="0" style="stop-color:#A44D9D"/>
		<stop  offset="1" style="stop-color:#F26522"/>
	</linearGradient>
	<path fill="url(#SVGID_10_)" d="M164.46,97.01c-0.83,0-1.5,0.67-1.5,1.5v18.06c0,0.83,0.67,1.5,1.5,1.5s1.5-0.67,1.5-1.5V98.51
		C165.96,97.68,165.28,97.01,164.46,97.01z"/>
	<linearGradient id="SVGID_11_" gradientUnits="userSpaceOnUse" x1="33.1925" y1="43.0438" x2="33.1925" y2="22.285">
		<stop  offset="0" style="stop-color:#A44D9D"/>
		<stop  offset="1" style="stop-color:#F26522"/>
	</linearGradient>
	<path fill="url(#SVGID_11_)" d="M29.44,43.04c0.83,0,1.5-0.67,1.5-1.5v-7.5c0-0.16-0.03-0.32-0.08-0.47
		c0.05-0.15,0.08-0.31,0.08-0.47c0-0.15-0.02-0.3-0.07-0.44c0.04-0.14,0.07-0.29,0.07-0.44v-0.88c0-0.01,0-0.02,0-0.03
		c0-0.01,0-0.02,0-0.03v-6h6c0.83,0,1.5-0.67,1.5-1.5s-0.67-1.5-1.5-1.5h-7.5c-0.83,0-1.5,0.67-1.5,1.5v7.5c0,0.01,0,0.02,0,0.03
		c0,0.01,0,0.02,0,0.03v0.88c0,0.15,0.02,0.3,0.07,0.44c-0.04,0.14-0.07,0.29-0.07,0.44v0.06c0,0.15,0.03,0.3,0.07,0.44
		c-0.04,0.14-0.07,0.29-0.07,0.44v7.5C27.94,42.37,28.61,43.04,29.44,43.04z"/>
	<linearGradient id="SVGID_12_" gradientUnits="userSpaceOnUse" x1="42.9324" y1="25.285" x2="42.9324" y2="22.285">
		<stop  offset="0" style="stop-color:#A44D9D"/>
		<stop  offset="1" style="stop-color:#F26522"/>
	</linearGradient>
	<path fill="url(#SVGID_12_)" d="M42.74,25.29h0.39c0.83,0,1.5-0.67,1.5-1.5s-0.67-1.5-1.5-1.5h-0.39c-0.83,0-1.5,0.67-1.5,1.5
		S41.91,25.29,42.74,25.29z"/>
	<linearGradient id="SVGID_13_" gradientUnits="userSpaceOnUse" x1="55.764" y1="25.285" x2="55.764" y2="22.285">
		<stop  offset="0" style="stop-color:#A44D9D"/>
		<stop  offset="1" style="stop-color:#F26522"/>
	</linearGradient>
	<path fill="url(#SVGID_13_)" d="M62.61,22.29h-7.5c-0.07,0-0.13,0.01-0.19,0.02c-0.06-0.01-0.13-0.02-0.19-0.02h-5.8
		c-0.83,0-1.5,0.67-1.5,1.5s0.67,1.5,1.5,1.5h5.8c0.07,0,0.13-0.01,0.19-0.02c0.06,0.01,0.13,0.02,0.19,0.02h7.5
		c0.83,0,1.5-0.67,1.5-1.5S63.43,22.29,62.61,22.29z"/>
	<linearGradient id="SVGID_14_" gradientUnits="userSpaceOnUse" x1="145.4112" y1="43.0438" x2="145.4112" y2="22.285">
		<stop  offset="0" style="stop-color:#A44D9D"/>
		<stop  offset="1" style="stop-color:#F26522"/>
	</linearGradient>
	<path fill="url(#SVGID_14_)" d="M141.66,25.29h6v6c0,0.01,0,0.02,0,0.03c0,0.01,0,0.02,0,0.03v0.88c0,0.15,0.02,0.3,0.07,0.44
		c-0.04,0.14-0.07,0.29-0.07,0.44v0.06c0,0.15,0.03,0.3,0.07,0.44c-0.04,0.14-0.07,0.29-0.07,0.44v7.5c0,0.83,0.67,1.5,1.5,1.5
		s1.5-0.67,1.5-1.5v-7.5c0-0.16-0.03-0.32-0.08-0.47c0.05-0.15,0.08-0.31,0.08-0.47c0-0.15-0.02-0.3-0.07-0.44
		c0.04-0.14,0.07-0.29,0.07-0.44v-0.88c0-0.01,0-0.02,0-0.03c0-0.01,0-0.02,0-0.03v-7.5c0-0.83-0.67-1.5-1.5-1.5h-7.5
		c-0.83,0-1.5,0.67-1.5,1.5S140.83,25.29,141.66,25.29z"/>
	<linearGradient id="SVGID_15_" gradientUnits="userSpaceOnUse" x1="135.6712" y1="25.285" x2="135.6712" y2="22.285">
		<stop  offset="0" style="stop-color:#A44D9D"/>
		<stop  offset="1" style="stop-color:#F26522"/>
	</linearGradient>
	<path fill="url(#SVGID_15_)" d="M135.48,25.29h0.39c0.83,0,1.5-0.67,1.5-1.5s-0.67-1.5-1.5-1.5h-0.39c-0.83,0-1.5,0.67-1.5,1.5
		S134.65,25.29,135.48,25.29z"/>
	<linearGradient id="SVGID_16_" gradientUnits="userSpaceOnUse" x1="122.8399" y1="25.285" x2="122.8399" y2="22.285">
		<stop  offset="0" style="stop-color:#A44D9D"/>
		<stop  offset="1" style="stop-color:#F26522"/>
	</linearGradient>
	<path fill="url(#SVGID_16_)" d="M129.68,25.29c0.83,0,1.5-0.67,1.5-1.5s-0.67-1.5-1.5-1.5h-5.8c-0.07,0-0.13,0.01-0.19,0.02
		c-0.06-0.01-0.13-0.02-0.19-0.02H116c-0.83,0-1.5,0.67-1.5,1.5s0.67,1.5,1.5,1.5h7.5c0.07,0,0.13-0.01,0.19-0.02
		c0.06,0.01,0.13,0.02,0.19,0.02H129.68z"/>
	<linearGradient id="SVGID_17_" gradientUnits="userSpaceOnUse" x1="84.6903" y1="88.0731" x2="84.6903" y2="69.4823">
		<stop  offset="0" style="stop-color:#A44D9D"/>
		<stop  offset="1" style="stop-color:#F26522"/>
	</linearGradient>
	<path fill="url(#SVGID_17_)" d="M91.42,80.78l-2.49,2.49c-2.41,2.41-6.32,2.41-8.73,0c-2.41-2.41-2.41-6.32,0-8.73l2.5-2.5
		c0.59-0.59,0.59-1.54,0-2.12s-1.54-0.59-2.12,0l-2.5,2.5c-3.58,3.58-3.58,9.4,0,12.97c1.79,1.79,4.14,2.68,6.49,2.68
		c2.35,0,4.7-0.89,6.49-2.68l2.49-2.49c0.59-0.59,0.59-1.54,0-2.12C92.96,80.19,92.01,80.19,91.42,80.78z"/>
	<linearGradient id="SVGID_18_" gradientUnits="userSpaceOnUse" x1="92.8513" y1="79.8895" x2="92.8513" y2="61.3617">
		<stop  offset="0" style="stop-color:#A44D9D"/>
		<stop  offset="1" style="stop-color:#F26522"/>
	</linearGradient>
	<path fill="url(#SVGID_18_)" d="M86.45,64.04l-2.42,2.42c-0.59,0.59-0.59,1.54,0,2.12c0.58,0.59,1.54,0.59,2.12,0l2.42-2.42
		c2.41-2.41,6.32-2.41,8.73,0c2.41,2.41,2.41,6.32,0,8.73l-2.43,2.43c-0.59,0.59-0.59,1.54,0,2.12c0.29,0.29,0.68,0.44,1.06,0.44
		s0.77-0.15,1.06-0.44l2.43-2.43c3.58-3.58,3.58-9.4,0-12.97C95.85,60.47,90.03,60.47,86.45,64.04z"/>
	<linearGradient id="SVGID_19_" gradientUnits="userSpaceOnUse" x1="88.7528" y1="79.1708" x2="88.7528" y2="70.2635">
		<stop  offset="0" style="stop-color:#A44D9D"/>
		<stop  offset="1" style="stop-color:#F26522"/>
	</linearGradient>
	<path fill="url(#SVGID_19_)" d="M85.8,79.17c0.38,0,0.77-0.15,1.06-0.44l5.91-5.91c0.59-0.59,0.59-1.54,0-2.12s-1.54-0.59-2.12,0
		l-5.91,5.91c-0.59,0.59-0.59,1.54,0,2.12C85.03,79.02,85.42,79.17,85.8,79.17z"/>
	<linearGradient id="SVGID_20_" gradientUnits="userSpaceOnUse" x1="87.5176" y1="51.6551" x2="87.5176" y2="5.9803">
		<stop  offset="0" style="stop-color:#A44D9D"/>
		<stop  offset="1" style="stop-color:#F26522"/>
	</linearGradient>
	<path fill="url(#SVGID_20_)" d="M87.52,5.98c-12.59,0-22.84,10.25-22.84,22.84s10.24,22.84,22.84,22.84s22.84-10.24,22.84-22.84
		S100.11,5.98,87.52,5.98z M87.52,48.66c-10.94,0-19.84-8.9-19.84-19.84s8.9-19.84,19.84-19.84s19.84,8.9,19.84,19.84
		S98.46,48.66,87.52,48.66z"/>
	<linearGradient id="SVGID_21_" gradientUnits="userSpaceOnUse" x1="87.5174" y1="47.1454" x2="87.5174" y2="10.4901">
		<stop  offset="0" style="stop-color:#A44D9D"/>
		<stop  offset="1" style="stop-color:#F26522"/>
	</linearGradient>
	<path fill="url(#SVGID_21_)" d="M87.52,17.82c2.71,0,4.91,2.2,4.91,4.91c0,0.83,0.67,1.5,1.5,1.5s1.5-0.67,1.5-1.5
		c0-3.85-2.76-7.06-6.41-7.76v-2.97c0-0.83-0.67-1.5-1.5-1.5s-1.5,0.67-1.5,1.5v2.97c-3.65,0.7-6.41,3.92-6.41,7.76
		c0,4.55,3.97,7.28,7.67,7.89c0,0,0,0,0,0c0,0,0,0,0.01,0c3.22,0.51,5.15,2.35,5.15,4.93c0,2.71-2.2,4.91-4.91,4.91
		s-4.91-2.2-4.91-4.91c0-0.83-0.67-1.5-1.5-1.5s-1.5,0.67-1.5,1.5c0,3.85,2.76,7.06,6.41,7.76v2.33c0,0.83,0.67,1.5,1.5,1.5
		s1.5-0.67,1.5-1.5v-2.33c3.65-0.7,6.41-3.92,6.41-7.76c0-4.06-3.01-7.15-7.67-7.89c0,0,0,0,0,0c-2.48-0.41-5.16-2.13-5.16-4.93
		C82.61,20.02,84.81,17.82,87.52,17.82z"/>
</g>
</svg>
