<?xml version="1.0" encoding="utf-8"?>
<!-- Generator: Adobe Illustrator 24.0.2, SVG Export Plug-In . SVG Version: 6.00 Build 0)  -->
<svg version="1.0" id="Layer_1" xmlns="http://www.w3.org/2000/svg" xmlns:xlink="http://www.w3.org/1999/xlink" x="0px" y="0px"
	 viewBox="0 0 181.4 124.05" enable-background="new 0 0 181.4 124.05" xml:space="preserve">
<g>
	<linearGradient id="SVGID_1_" gradientUnits="userSpaceOnUse" x1="90.9421" y1="124.0545" x2="90.9421" y2="-1.663108e-04">
		<stop  offset="0" style="stop-color:#A44D9D"/>
		<stop  offset="1" style="stop-color:#F26522"/>
	</linearGradient>
	<path fill="url(#SVGID_1_)" d="M162.3,24.22c-9.75,0-17.81,7.26-19.13,16.65l-32.93-22.35C109.8,8.24,101.33,0,90.94,0
		s-18.86,8.24-19.3,18.52L38.71,40.87c-1.32-9.39-9.38-16.65-19.13-16.65c-10.66,0-19.34,8.68-19.34,19.34S8.92,62.9,19.58,62.9
		c10.39,0,18.86-8.24,19.3-18.52l32.93-22.35c1.25,8.9,8.56,15.87,17.63,16.57V59.9H72.77v15.59H39.42v48.57h33.35h3h30.35h3h33.35
		V73.39h-33.35V59.9H92.44V38.6c9.07-0.7,16.38-7.67,17.63-16.57L143,44.38c0.44,10.28,8.91,18.52,19.3,18.52
		c10.66,0,19.34-8.68,19.34-19.34S172.97,24.22,162.3,24.22z M19.58,59.9c-9.01,0-16.34-7.33-16.34-16.34s7.33-16.34,16.34-16.34
		c9.01,0,16.34,7.33,16.34,16.34S28.59,59.9,19.58,59.9z M72.77,121.05H42.42V78.48h30.35V121.05z M139.46,76.39v44.67h-30.35V76.39
		H139.46z M106.12,62.9v10.49v47.67H75.77V75.48V62.9H106.12z M90.94,35.68c-9.01,0-16.34-7.33-16.34-16.34
		C74.6,10.33,81.93,3,90.94,3c9.01,0,16.34,7.33,16.34,16.34C107.28,28.35,99.95,35.68,90.94,35.68z M162.3,59.9
		c-9.01,0-16.34-7.33-16.34-16.34s7.33-16.34,16.34-16.34s16.34,7.33,16.34,16.34S171.31,59.9,162.3,59.9z"/>
	<linearGradient id="SVGID_2_" gradientUnits="userSpaceOnUse" x1="80.5396" y1="72.9745" x2="80.5396" y2="65.5233">
		<stop  offset="0" style="stop-color:#A44D9D"/>
		<stop  offset="1" style="stop-color:#F26522"/>
	</linearGradient>
	<rect x="76.91" y="65.52" fill="url(#SVGID_2_)" width="7.26" height="7.45"/>
	<linearGradient id="SVGID_3_" gradientUnits="userSpaceOnUse" x1="91.1842" y1="72.9745" x2="91.1842" y2="65.5233">
		<stop  offset="0" style="stop-color:#A44D9D"/>
		<stop  offset="1" style="stop-color:#F26522"/>
	</linearGradient>
	<rect x="87.56" y="65.52" fill="url(#SVGID_3_)" width="7.26" height="7.45"/>
	<linearGradient id="SVGID_4_" gradientUnits="userSpaceOnUse" x1="101.345" y1="72.9745" x2="101.345" y2="65.5233">
		<stop  offset="0" style="stop-color:#A44D9D"/>
		<stop  offset="1" style="stop-color:#F26522"/>
	</linearGradient>
	<rect x="97.72" y="65.52" fill="url(#SVGID_4_)" width="7.26" height="7.45"/>
	<linearGradient id="SVGID_5_" gradientUnits="userSpaceOnUse" x1="80.5396" y1="87.877" x2="80.5396" y2="80.4257">
		<stop  offset="0" style="stop-color:#A44D9D"/>
		<stop  offset="1" style="stop-color:#F26522"/>
	</linearGradient>
	<rect x="76.91" y="80.43" fill="url(#SVGID_5_)" width="7.26" height="7.45"/>
	<linearGradient id="SVGID_6_" gradientUnits="userSpaceOnUse" x1="91.1842" y1="87.877" x2="91.1842" y2="80.4257">
		<stop  offset="0" style="stop-color:#A44D9D"/>
		<stop  offset="1" style="stop-color:#F26522"/>
	</linearGradient>
	<rect x="87.56" y="80.43" fill="url(#SVGID_6_)" width="7.26" height="7.45"/>
	<linearGradient id="SVGID_7_" gradientUnits="userSpaceOnUse" x1="101.345" y1="87.877" x2="101.345" y2="80.4257">
		<stop  offset="0" style="stop-color:#A44D9D"/>
		<stop  offset="1" style="stop-color:#F26522"/>
	</linearGradient>
	<rect x="97.72" y="80.43" fill="url(#SVGID_7_)" width="7.26" height="7.45"/>
	<linearGradient id="SVGID_8_" gradientUnits="userSpaceOnUse" x1="80.5396" y1="102.7795" x2="80.5396" y2="95.3283">
		<stop  offset="0" style="stop-color:#A44D9D"/>
		<stop  offset="1" style="stop-color:#F26522"/>
	</linearGradient>
	<rect x="76.91" y="95.33" fill="url(#SVGID_8_)" width="7.26" height="7.45"/>
	<linearGradient id="SVGID_9_" gradientUnits="userSpaceOnUse" x1="91.1842" y1="102.7795" x2="91.1842" y2="95.3283">
		<stop  offset="0" style="stop-color:#A44D9D"/>
		<stop  offset="1" style="stop-color:#F26522"/>
	</linearGradient>
	<rect x="87.56" y="95.33" fill="url(#SVGID_9_)" width="7.26" height="7.45"/>
	<linearGradient id="SVGID_10_" gradientUnits="userSpaceOnUse" x1="101.345" y1="102.7795" x2="101.345" y2="95.3283">
		<stop  offset="0" style="stop-color:#A44D9D"/>
		<stop  offset="1" style="stop-color:#F26522"/>
	</linearGradient>
	<rect x="97.72" y="95.33" fill="url(#SVGID_10_)" width="7.26" height="7.45"/>
	<linearGradient id="SVGID_11_" gradientUnits="userSpaceOnUse" x1="80.5396" y1="117.682" x2="80.5396" y2="110.2307">
		<stop  offset="0" style="stop-color:#A44D9D"/>
		<stop  offset="1" style="stop-color:#F26522"/>
	</linearGradient>
	<rect x="76.91" y="110.23" fill="url(#SVGID_11_)" width="7.26" height="7.45"/>
	<linearGradient id="SVGID_12_" gradientUnits="userSpaceOnUse" x1="91.1842" y1="117.682" x2="91.1842" y2="110.2307">
		<stop  offset="0" style="stop-color:#A44D9D"/>
		<stop  offset="1" style="stop-color:#F26522"/>
	</linearGradient>
	<rect x="87.56" y="110.23" fill="url(#SVGID_12_)" width="7.26" height="7.45"/>
	<linearGradient id="SVGID_13_" gradientUnits="userSpaceOnUse" x1="101.345" y1="117.682" x2="101.345" y2="110.2307">
		<stop  offset="0" style="stop-color:#A44D9D"/>
		<stop  offset="1" style="stop-color:#F26522"/>
	</linearGradient>
	<rect x="97.72" y="110.23" fill="url(#SVGID_13_)" width="7.26" height="7.45"/>
	<linearGradient id="SVGID_14_" gradientUnits="userSpaceOnUse" x1="48.8449" y1="87.4579" x2="48.8449" y2="79.7579">
		<stop  offset="0" style="stop-color:#A44D9D"/>
		<stop  offset="1" style="stop-color:#F26522"/>
	</linearGradient>
	<rect x="45.09" y="79.76" fill="url(#SVGID_14_)" width="7.5" height="7.7"/>
	<linearGradient id="SVGID_15_" gradientUnits="userSpaceOnUse" x1="66.3449" y1="87.4579" x2="66.3449" y2="79.7579">
		<stop  offset="0" style="stop-color:#A44D9D"/>
		<stop  offset="1" style="stop-color:#F26522"/>
	</linearGradient>
	<rect x="62.59" y="79.76" fill="url(#SVGID_15_)" width="7.5" height="7.7"/>
	<linearGradient id="SVGID_16_" gradientUnits="userSpaceOnUse" x1="48.8449" y1="102.8579" x2="48.8449" y2="95.1579">
		<stop  offset="0" style="stop-color:#A44D9D"/>
		<stop  offset="1" style="stop-color:#F26522"/>
	</linearGradient>
	<rect x="45.09" y="95.16" fill="url(#SVGID_16_)" width="7.5" height="7.7"/>
	<linearGradient id="SVGID_17_" gradientUnits="userSpaceOnUse" x1="66.3449" y1="102.8579" x2="66.3449" y2="95.1579">
		<stop  offset="0" style="stop-color:#A44D9D"/>
		<stop  offset="1" style="stop-color:#F26522"/>
	</linearGradient>
	<rect x="62.59" y="95.16" fill="url(#SVGID_17_)" width="7.5" height="7.7"/>
	<linearGradient id="SVGID_18_" gradientUnits="userSpaceOnUse" x1="48.8449" y1="118.2579" x2="48.8449" y2="110.5579">
		<stop  offset="0" style="stop-color:#A44D9D"/>
		<stop  offset="1" style="stop-color:#F26522"/>
	</linearGradient>
	<rect x="45.09" y="110.56" fill="url(#SVGID_18_)" width="7.5" height="7.7"/>
	<linearGradient id="SVGID_19_" gradientUnits="userSpaceOnUse" x1="66.3449" y1="118.2579" x2="66.3449" y2="110.5579">
		<stop  offset="0" style="stop-color:#A44D9D"/>
		<stop  offset="1" style="stop-color:#F26522"/>
	</linearGradient>
	<rect x="62.59" y="110.56" fill="url(#SVGID_19_)" width="7.5" height="7.7"/>
	<linearGradient id="SVGID_20_" gradientUnits="userSpaceOnUse" x1="115.5397" y1="87.4579" x2="115.5397" y2="79.7579">
		<stop  offset="0" style="stop-color:#A44D9D"/>
		<stop  offset="1" style="stop-color:#F26522"/>
	</linearGradient>
	<rect x="111.79" y="79.76" fill="url(#SVGID_20_)" width="7.5" height="7.7"/>
	<linearGradient id="SVGID_21_" gradientUnits="userSpaceOnUse" x1="133.0397" y1="87.4579" x2="133.0397" y2="79.7579">
		<stop  offset="0" style="stop-color:#A44D9D"/>
		<stop  offset="1" style="stop-color:#F26522"/>
	</linearGradient>
	<rect x="129.29" y="79.76" fill="url(#SVGID_21_)" width="7.5" height="7.7"/>
	<linearGradient id="SVGID_22_" gradientUnits="userSpaceOnUse" x1="115.5397" y1="102.8579" x2="115.5397" y2="95.1579">
		<stop  offset="0" style="stop-color:#A44D9D"/>
		<stop  offset="1" style="stop-color:#F26522"/>
	</linearGradient>
	<rect x="111.79" y="95.16" fill="url(#SVGID_22_)" width="7.5" height="7.7"/>
	<linearGradient id="SVGID_23_" gradientUnits="userSpaceOnUse" x1="133.0397" y1="102.8579" x2="133.0397" y2="95.1579">
		<stop  offset="0" style="stop-color:#A44D9D"/>
		<stop  offset="1" style="stop-color:#F26522"/>
	</linearGradient>
	<rect x="129.29" y="95.16" fill="url(#SVGID_23_)" width="7.5" height="7.7"/>
	<linearGradient id="SVGID_24_" gradientUnits="userSpaceOnUse" x1="115.5397" y1="118.2579" x2="115.5397" y2="110.5579">
		<stop  offset="0" style="stop-color:#A44D9D"/>
		<stop  offset="1" style="stop-color:#F26522"/>
	</linearGradient>
	<rect x="111.79" y="110.56" fill="url(#SVGID_24_)" width="7.5" height="7.7"/>
	<linearGradient id="SVGID_25_" gradientUnits="userSpaceOnUse" x1="133.0397" y1="118.2579" x2="133.0397" y2="110.5579">
		<stop  offset="0" style="stop-color:#A44D9D"/>
		<stop  offset="1" style="stop-color:#F26522"/>
	</linearGradient>
	<rect x="129.29" y="110.56" fill="url(#SVGID_25_)" width="7.5" height="7.7"/>
</g>
</svg>
