<?xml version="1.0" standalone="no"?>
<!DOCTYPE svg PUBLIC "-//W3C//DTD SVG 20010904//EN"
 "http://www.w3.org/TR/2001/REC-SVG-20010904/DTD/svg10.dtd">
<svg version="1.0" xmlns="http://www.w3.org/2000/svg"
 width="1161.000000pt" height="1161.000000pt" viewBox="0 0 1161.000000 1161.000000"
 preserveAspectRatio="xMidYMid meet">
<metadata>
Created by potrace 1.11, written by Peter Selinger 2001-2013
</metadata>
<g transform="translate(0.000000,1161.000000) scale(0.100000,-0.100000)"
fill="#000000" stroke="none">
<path d="M8309 11600 c-4 -17 -3 -10522 1 -10525 6 -4 26 6 250 122 96 50 265
137 375 193 252 129 544 279 750 385 88 45 248 128 355 183 107 55 274 140
370 190 426 218 557 286 740 379 107 55 255 131 328 169 l132 68 0 4421 0
4420 -1650 0 c-907 0 -1651 -2 -1651 -5z"/>
<path d="M4038 8489 c-7 -5 -11 -1260 -12 -3882 l-1 -3875 115 -47 c63 -26
140 -58 170 -71 30 -13 188 -78 350 -144 162 -67 487 -200 721 -296 l426 -176
284 117 c156 65 345 142 419 172 74 30 154 64 177 74 23 10 46 19 50 19 4 1
26 9 48 20 22 11 43 19 48 20 4 0 26 9 50 19 23 11 121 52 217 91 96 39 200
81 230 94 30 13 101 42 157 65 l101 42 0 3880 c0 2949 -2 3879 -11 3880 -66 4
-3532 2 -3539 -2z"/>
<path d="M9 6336 c-1 0 -2 -797 -3 -1770 l-1 -1769 35 -22 c19 -12 78 -43 130
-70 52 -26 129 -66 170 -88 41 -22 127 -66 190 -99 63 -33 160 -84 215 -113
55 -29 168 -87 250 -130 83 -43 191 -99 240 -125 50 -26 149 -78 220 -115 72
-37 166 -87 210 -110 75 -40 145 -76 460 -240 72 -37 175 -91 230 -120 55 -29
163 -85 240 -125 77 -40 172 -90 210 -110 39 -21 138 -72 220 -115 83 -43 178
-93 212 -111 34 -19 65 -34 68 -34 3 0 5 1185 5 2634 l0 2634 -1650 0 c-907 0
-1651 -1 -1651 -2z"/>
</g>
</svg>
