<?xml version="1.0" encoding="utf-8"?>
<!-- Generator: Adobe Illustrator 24.0.2, SVG Export Plug-In . SVG Version: 6.00 Build 0)  -->
<svg version="1.0" id="Layer_1" xmlns="http://www.w3.org/2000/svg" xmlns:xlink="http://www.w3.org/1999/xlink" x="0px" y="0px"
	 viewBox="0 0 181.4 124.05" enable-background="new 0 0 181.4 124.05" xml:space="preserve">
<linearGradient id="SVGID_1_" gradientUnits="userSpaceOnUse" x1="37.1357" y1="49.619" x2="37.1357" y2="43.8078">
	<stop  offset="0" style="stop-color:#A44D9D"/>
	<stop  offset="1" style="stop-color:#F26522"/>
</linearGradient>
<path fill="url(#SVGID_1_)" d="M44.27,46.76c-3.94-3.94-10.33-3.94-14.28,0l2.85,2.85c2.37-2.36,6.2-2.36,8.57,0L44.27,46.76z"/>
<linearGradient id="SVGID_2_" gradientUnits="userSpaceOnUse" x1="37.1355" y1="45.3368" x2="37.1355" y2="37.752">
	<stop  offset="0" style="stop-color:#A44D9D"/>
	<stop  offset="1" style="stop-color:#F26522"/>
</linearGradient>
<path fill="url(#SVGID_2_)" d="M48.56,42.48c-6.31-6.31-16.53-6.31-22.84,0l2.85,2.86c2.27-2.28,5.35-3.56,8.57-3.55
	c3.21-0.01,6.3,1.27,8.57,3.55L48.56,42.48z"/>
<linearGradient id="SVGID_3_" gradientUnits="userSpaceOnUse" x1="37.1357" y1="53.9023" x2="37.1357" y2="49.8647">
	<stop  offset="0" style="stop-color:#A44D9D"/>
	<stop  offset="1" style="stop-color:#F26522"/>
</linearGradient>
<circle fill="url(#SVGID_3_)" cx="37.14" cy="51.88" r="2.02"/>
<linearGradient id="SVGID_4_" gradientUnits="userSpaceOnUse" x1="89.6214" y1="117.376" x2="89.6214" y2="16.4165">
	<stop  offset="0" style="stop-color:#A44D9D"/>
	<stop  offset="1" style="stop-color:#F26522"/>
</linearGradient>
<path fill="url(#SVGID_4_)" d="M12.91,117.38v-2.04h3.04l1-1v-10.09c0-0.56,0.46-1.02,1.02-1.02h2.22l0.98-0.8
	c0.2-0.96,0.55-1.89,1.04-2.73l0.1-0.23l2.59-9.07v-0.55l-2.78-9.72l-0.36-0.52c-1.65-1.25-2.67-3.15-2.79-5.22
	c-0.12-2.07,0.66-4.07,2.15-5.51c1.32-1.28,3.07-1.98,4.91-1.98c0.23,0,0.45,0.01,0.68,0.03c2.06,0.2,3.92,1.28,5.11,2.98l0.5,0.37
	l13.04,4.35l1.02-0.24l2.63-2.63l0.28-0.56c0.29-1.93,1.68-3.53,3.55-4.09c0.47-0.14,0.96-0.21,1.45-0.21
	c1.43,0,2.81,0.61,3.76,1.68l0.3,0.23l8.51,4.25c0.34,0.17,0.56,0.53,0.56,0.91v8.08c0,0.56-0.46,1.02-1.02,1.02h-6.06
	c-0.56,0-1.02-0.46-1.02-1.02v-2.96l-0.45-0.83l-2.1-1.4l-0.88-0.12c-0.37,0.13-0.76,0.21-1.14,0.24l-0.84,0.62l-2.04,5.11
	l0.48,1.27l2.38,1.19c0.45,0.23,0.67,0.76,0.51,1.23l-2.02,6.06c-0.08,0.26-0.27,0.47-0.51,0.59c-0.14,0.07-0.3,0.11-0.45,0.11
	c-0.11,0-0.22-0.02-0.32-0.05l-6.06-2.02c-0.3-0.1-0.54-0.34-0.64-0.64l-1.7-5.1l-0.63-0.63l-8.48-2.83l-1.28,1.22l4.67,16.36
	l0.1,0.23c0.5,0.85,0.85,1.77,1.04,2.73l0.98,0.8h8.28c0.56,0,1.02,0.46,1.02,1.02v10.09l1,1h60.55l1-1v-8.08
	c0-0.56,0.46-1.02,1.02-1.02h20.19l1-1v-64.6l-1-1h-6.06c-0.56,0-1.02-0.46-1.02-1.02v-8.08l-1-1H94.66l-1,1v5.22l0.29,0.71
	l6.89,6.89l0.71,0.29h7.24c0.56,0,1.02,0.46,1.02,1.02v12.11c0,0.56-0.46,1.02-1.02,1.02h-32.3c-0.56,0-1.02-0.46-1.02-1.02V43.68
	c0-0.56,0.46-1.02,1.02-1.02h7.24l0.71-0.29l6.89-6.89l0.29-0.71v-5.22l-1-1H70.43c-0.56,0-1.02-0.46-1.02-1.02v-8.08
	c0-0.56,0.46-1.02,1.02-1.02h54.51l1-1c0-0.56,0.46-1.02,1.02-1.02h22.21c0.56,0,1.02,0.46,1.02,1.02l1,1h4.04l1-1
	c0-0.56,0.46-1.02,1.02-1.02h8.08c0.56,0,1.02,0.46,1.02,1.02V35.6c0,0.56-0.46,1.02-1.02,1.02h-8.08c-0.56,0-1.02-0.46-1.02-1.02
	v-2.02l-1-1h-4.04l-1,1v4.04c0,0.56-0.46,1.02-1.02,1.02l-1,1v64.6l1,1h12.11c0.56,0,1.02,0.46,1.02,1.02v8.08l1,1h3.04v2.04H12.91z
	 M113.85,108.28v6.06l1,1h44.41l1-1v-6.06l-1-1h-44.41L113.85,108.28z M46.23,115.34l1-1v-8.08l-1-1h-6.26l-0.98,0.8
	c-0.86,4.22-4.61,7.28-8.91,7.28c-4.3,0-8.05-3.06-8.91-7.28l-0.98-0.8h-0.2l-1,1v8.08l1,1h10.09H46.23z M30.08,97.19
	c-3.89,0-7.05,3.17-7.06,7.06c0,2.87,1.71,5.42,4.36,6.52c0.86,0.36,1.77,0.54,2.7,0.54c1.89,0,3.66-0.73,4.99-2.07
	c2.03-2.03,2.63-5.04,1.53-7.69C35.5,98.9,32.94,97.19,30.08,97.19L30.08,97.19z M136.05,94.99v9.26l1,1h8.08l1-1v-1.18l-0.29-0.71
	l-8.08-8.08L136.05,94.99z M137.18,89.41v1.41l7.24,7.24l1.71-0.71V82.87l-1.71-0.71L137.18,89.41z M30.08,95.15
	c1,0,1.98,0.16,2.92,0.49l1.28-1.22l-0.73-2.56l-0.96-0.73h-5.03l-0.96,0.73l-0.73,2.56l1.28,1.22
	C28.1,95.31,29.08,95.15,30.08,95.15z M47.34,76.3l-0.26,0.47l-1.74,6.96l0.02,0.56l1.51,4.54l0.63,0.63l3.18,1.06l1.26-0.63
	l0.83-2.48l-0.5-1.21l-2.47-1.24c-0.47-0.23-0.69-0.8-0.49-1.29l2.54-6.34l-0.37-1.2c-0.47-0.32-0.88-0.7-1.22-1.15l-1.5-0.1
	L47.34,76.3z M24.87,82.31l1.73,6.06l0.96,0.73h3.88l0.96-1.27l-1.95-6.83l-1.39-0.63c-0.93,0.44-1.97,0.68-3.01,0.68l-0.1,0
	L24.87,82.31z M136.05,70.76v14.48l1.71,0.71l7.24-7.24v-1.41l-7.24-7.24L136.05,70.76z M33.11,74.06
	c-0.02,1.27-0.37,2.51-1.04,3.59l0.54,1.47l9.85,3.28l1.29-0.71l1.04-4.15l-0.65-1.19l-9.7-3.23L33.11,74.06z M59.26,72.94
	c-0.11,0.55-0.31,1.08-0.6,1.57l0.31,1.34l1.96,1.31c0.28,0.19,0.45,0.51,0.45,0.85v2.02l1,1h2.02l1-1v-4.81l-0.55-0.89l-4.16-2.08
	L59.26,72.94z M26.04,68.92c-2.77,0-5.03,2.26-5.04,5.04c0,2.05,1.22,3.87,3.11,4.65c0.61,0.25,1.26,0.38,1.93,0.38
	c1.35,0,2.61-0.52,3.56-1.48c1.45-1.44,1.88-3.6,1.09-5.49C29.91,70.14,28.08,68.92,26.04,68.92L26.04,68.92z M54.3,68.92
	c-1.66,0-3.02,1.36-3.02,3.02c0,1.23,0.73,2.32,1.86,2.79c0.37,0.15,0.76,0.23,1.16,0.23c0.81,0,1.56-0.31,2.14-0.88
	c0.87-0.87,1.12-2.16,0.65-3.29C56.62,69.66,55.53,68.92,54.3,68.92L54.3,68.92z M137.18,65.18v1.41l7.24,7.24l1.71-0.71V58.65
	l-1.71-0.71L137.18,65.18z M136.05,46.53v14.48l1.71,0.71l7.24-7.24v-1.41l-7.24-7.24L136.05,46.53z M101.73,51.75v2.02l1,1h4.04
	l1-1v-2.02l-1-1h-4.04L101.73,51.75z M85.58,51.75v2.02l1,1H98.7l1-1v-2.02l-1-1H86.58L85.58,51.75z M77.51,51.75v2.02l1,1h4.04l1-1
	v-2.02l-1-1h-4.04L77.51,51.75z M136.05,39.64v1.18l0.29,0.71l8.08,8.08l1.71-0.71v-9.26l-1-1h-8.08L136.05,39.64z M101.73,45.7
	v2.02l1,1h4.04l1-1V45.7l-1-1h-4.04L101.73,45.7z M85.58,45.7v2.02l1,1H98.7l1-1V45.7l-1-1H86.58L85.58,45.7z M77.51,45.7v2.02l1,1
	h4.04l1-1V45.7l-1-1h-4.04L77.51,45.7z M91.93,37.75l-3.2,3.2l0.71,1.71h6.4l0.71-1.71l-3.2-3.2H91.93z M127.98,33.59v2.02l1,1
	h18.17l1-1V19.45l-1-1h-2.02l-1,1v12.11c0,0.56-0.46,1.02-1.02,1.02h-14.13L127.98,33.59z M158.26,19.45v14.13l1,1h4.04l1-1V19.45
	l-1-1h-4.04L158.26,19.45z M150.19,21.47v8.08l1,1h4.04l1-1v-8.08l-1-1h-4.04L150.19,21.47z M127.98,19.45v10.09l1,1h12.11l1-1
	V19.45l-1-1h-12.11L127.98,19.45z M71.45,21.47v4.04l1,1h52.49l1-1v-4.04l-1-1H72.45L71.45,21.47z"/>
</svg>
